<?xml version="1.0" standalone="no"?>
<!DOCTYPE svg PUBLIC "-//W3C//DTD SVG 20010904//EN"
 "http://www.w3.org/TR/2001/REC-SVG-20010904/DTD/svg10.dtd">
<svg version="1.0" xmlns="http://www.w3.org/2000/svg"
 width="400.000000pt" height="400.000000pt" viewBox="0 0 400.000000 400.000000"
 preserveAspectRatio="xMidYMid meet">
<metadata>
Created by potrace 1.11, written by Peter Selinger 2001-2013
</metadata>
<g transform="translate(0.000000,400.000000) scale(0.100000,-0.100000)"
fill="#000000" stroke="none">
<path d="M1165 3788 c-71 -9 -219 -44 -255 -60 -120 -53 -225 -123 -305 -203
-55 -55 -145 -175 -145 -193 0 -6 -4 -12 -8 -14 -17 -7 -65 -135 -89 -240 -32
-142 -34 -251 -8 -368 3 -14 8 -36 11 -50 17 -90 61 -194 118 -280 27 -41 55
-80 60 -86 6 -6 26 -28 44 -48 38 -44 190 -161 221 -171 12 -3 21 -11 21 -16
0 -6 4 -7 10 -4 5 3 10 1 10 -4 0 -6 3 -10 8 -9 4 1 24 -6 46 -15 21 -9 43
-17 48 -17 5 0 6 -6 2 -12 -6 -10 -4 -10 8 0 12 10 17 10 20 1 2 -7 15 -13 29
-15 13 -1 38 -5 54 -9 17 -4 35 -8 42 -8 7 0 10 -4 7 -9 -3 -4 0 -8 5 -8 6 0
11 5 11 12 0 6 3 8 6 5 4 -4 1 -14 -6 -22 -12 -14 -11 -15 14 -4 20 9 29 10
38 1 9 -9 15 -8 27 1 14 11 14 10 2 -5 -10 -14 -18 -15 -32 -7 -21 11 -39 4
-38 -14 0 -9 2 -9 6 1 2 6 9 12 14 12 6 0 7 -5 3 -12 -5 -7 -2 -9 8 -5 9 3 25
-1 37 -10 19 -12 20 -17 9 -31 -11 -13 -11 -14 2 -7 25 15 64 14 84 -4 15 -13
18 -13 10 -1 -13 23 -11 87 3 87 8 0 9 -6 3 -17 -12 -22 25 -47 46 -29 7 6 11
16 7 22 -3 6 -1 7 6 3 9 -6 9 -11 0 -22 -7 -9 -8 -14 -1 -14 6 0 14 5 18 11 5
8 10 6 16 -5 5 -9 13 -14 18 -11 5 3 12 0 16 -6 4 -8 3 -9 -4 -5 -8 5 -10 1
-5 -9 4 -12 8 -13 13 -5 4 6 11 12 16 13 5 1 8 5 6 10 -1 4 2 7 8 7 5 0 7 8 3
18 -5 14 -3 13 10 -3 9 -11 16 -24 17 -30 0 -5 -5 -3 -10 5 -5 8 -10 11 -10 5
0 -5 5 -17 10 -25 8 -12 10 -12 10 -1 0 11 3 11 17 0 15 -13 15 -12 5 7 -6 12
-8 24 -5 28 3 3 2 6 -4 6 -6 0 -14 8 -17 17 -6 15 -4 15 14 -2 19 -18 20 -18
21 1 0 16 2 15 10 -4 5 -14 13 -20 20 -16 7 4 9 3 5 -4 -3 -6 -15 -9 -26 -7
-12 2 -18 0 -15 -5 4 -7 26 -7 45 0 3 1 9 2 14 1 12 -2 37 20 32 28 -3 4 0 13
6 21 8 12 9 12 4 -2 -3 -10 0 -18 6 -18 6 0 3 -10 -8 -22 -14 -16 -10 -15 15
5 25 21 36 25 47 16 10 -8 12 -6 9 10 -2 12 3 25 13 31 16 9 16 9 0 10 -9 0
-21 -6 -25 -12 -4 -7 -15 -19 -24 -25 -13 -10 -16 -10 -16 2 0 8 2 13 5 11 7
-7 41 27 36 36 -3 4 2 5 11 1 10 -3 20 -1 24 5 4 7 11 4 20 -9 7 -12 9 -19 4
-16 -15 10 -42 -18 -32 -34 7 -11 9 -11 9 4 0 10 4 16 9 12 5 -3 12 -1 16 5 4
6 11 8 16 4 5 -3 6 -10 3 -16 -4 -7 -2 -8 5 -4 8 5 1 22 -21 54 -18 26 -25 41
-17 35 9 -7 18 -11 21 -8 3 3 18 -1 33 -9 26 -14 55 -12 55 3 0 4 -7 8 -15 8
-8 0 -11 -5 -8 -11 3 -7 1 -6 -7 1 -7 6 -9 17 -5 23 6 9 10 9 16 -1 7 -12 9
-11 9 0 0 11 4 9 15 -5 9 -12 14 -14 15 -6 0 7 4 11 9 8 5 -3 12 1 15 10 5 14
9 14 24 3 14 -11 13 -9 -2 9 -23 26 -11 29 18 5 12 -10 15 -11 9 -3 -16 17
-17 34 -3 25 6 -4 10 -3 9 2 -3 18 2 34 9 29 4 -2 13 4 20 14 9 15 8 19 -4 24
-18 7 -34 0 -34 -16 0 -7 6 -6 15 2 10 9 15 9 15 1 0 -6 -4 -12 -10 -12 -5 -1
-14 -2 -19 -3 -15 -2 -25 -16 -12 -16 7 0 9 -5 6 -10 -4 -6 -16 -8 -27 -4 -13
4 -18 2 -14 -4 3 -6 2 -13 -4 -17 -6 -4 -8 -10 -5 -15 3 -4 -2 -10 -10 -14
-19 -7 -19 8 0 27 8 8 12 17 9 20 -3 3 4 10 15 16 11 6 26 21 32 33 10 18 9
20 -5 15 -8 -3 -18 -3 -20 2 -6 9 61 7 92 -4 12 -4 22 -11 22 -16 0 -5 7 -6
15 -3 8 4 15 1 15 -7 0 -7 3 -9 6 -6 4 4 19 -2 33 -11 14 -10 49 -29 76 -42
28 -14 52 -28 53 -33 2 -4 7 -5 12 -2 5 3 16 -2 24 -11 9 -8 16 -12 16 -8 0 3
6 1 14 -5 11 -10 23 -99 30 -225 1 -31 -14 -45 -171 -152 -49 -34 -52 -35 -80
-20 -42 21 -184 56 -257 63 -66 6 -187 -14 -282 -46 -154 -52 -324 -212 -388
-365 -44 -106 -76 -321 -54 -368 5 -10 11 -32 13 -50 10 -58 13 -72 29 -117
40 -111 134 -230 240 -305 65 -46 146 -91 146 -80 0 4 6 1 14 -5 8 -7 22 -14
32 -16 11 -2 34 -8 52 -14 17 -5 32 -7 32 -3 0 4 4 1 8 -6 5 -7 32 -14 63 -15
49 -2 55 -4 55 -24 0 -12 -4 -19 -8 -17 -4 3 -8 0 -8 -6 0 -7 7 -10 15 -7 8 4
17 2 20 -2 3 -5 14 -7 25 -4 11 3 18 8 16 12 -8 13 33 10 44 -4 8 -10 8 -15
-1 -21 -7 -4 -9 -3 -5 4 4 7 -1 10 -14 9 -25 -2 -26 -13 -2 -19 21 -6 53 4 54
16 0 5 -7 13 -16 18 -9 5 -16 13 -16 18 0 6 9 2 19 -7 11 -9 17 -21 14 -26 -4
-6 1 -8 10 -4 10 3 17 2 17 -3 0 -6 -4 -10 -10 -10 -5 0 -10 -5 -10 -11 0 -8
5 -8 15 1 12 10 16 8 24 -11 7 -18 10 -19 10 -7 1 10 4 18 9 17 17 -3 51 14
46 22 -3 5 -11 6 -17 2 -25 -16 -53 -10 -55 11 -1 17 1 18 8 6 8 -13 10 -13
10 -1 0 11 4 9 14 -5 13 -17 15 -17 21 -2 6 15 8 15 24 0 10 -9 15 -24 13 -32
-7 -20 2 -11 17 17 10 20 9 22 -6 17 -15 -5 -16 -4 -3 5 20 15 33 14 27 -2 -3
-7 1 -21 9 -32 8 -10 14 -14 14 -9 0 6 -5 15 -12 22 -7 7 -8 12 -2 12 6 0 15
-5 22 -12 9 -9 12 -9 12 1 0 7 4 10 9 7 5 -3 12 1 15 9 4 13 10 14 26 5 15 -8
18 -8 15 2 -3 7 6 25 20 41 14 15 22 28 18 28 -4 1 -14 2 -22 3 -8 0 -15 11
-16 23 -1 12 2 20 7 17 5 -4 7 -12 4 -20 -8 -21 23 -14 48 11 12 11 20 29 19
40 -2 13 0 15 4 5 3 -8 10 -23 15 -32 7 -14 5 -16 -8 -11 -10 4 -15 1 -13 -8
2 -8 -11 -29 -29 -48 -18 -18 -32 -38 -31 -45 0 -7 2 -7 6 2 2 6 10 9 15 6 7
-4 8 -2 4 4 -4 6 3 21 15 33 16 16 23 18 29 9 5 -9 9 -9 14 -1 4 6 2 11 -4 11
-6 0 -8 5 -5 10 5 8 12 7 23 -2 15 -11 15 -11 4 3 -10 13 -9 19 3 29 15 12 21
4 16 -23 -1 -5 3 -6 9 -2 7 4 7 12 0 25 -7 13 -7 21 0 25 10 6 14 -1 11 -18
-1 -5 4 -5 10 -2 7 5 6 12 -5 24 -14 13 -18 14 -25 2 -5 -7 -11 -9 -13 -5 -3
5 -3 3 -1 -5 3 -11 1 -12 -12 -1 -9 7 -12 16 -7 19 5 3 14 15 21 26 11 19 12
19 6 -2 -5 -18 -3 -22 10 -17 9 4 13 9 11 12 -12 11 16 30 37 26 l22 -5 -23
10 c-12 6 -29 8 -38 4 -9 -3 -5 6 10 22 14 15 26 32 26 37 0 5 6 8 13 5 16 -6
49 12 42 23 -3 5 -1 11 5 15 14 9 13 22 -3 28 -8 3 -14 -1 -14 -9 0 -7 5 -10
10 -7 6 3 7 1 3 -5 -5 -9 -12 -8 -26 0 -17 11 -17 14 -4 21 13 8 13 12 -2 35
-17 26 -17 27 1 12 17 -13 18 -13 13 1 -4 9 -1 16 7 16 11 0 11 -5 4 -20 -8
-13 -8 -22 0 -30 6 -6 11 -7 11 -3 0 5 6 3 14 -3 12 -10 14 -9 11 6 -1 10 -8
17 -14 15 -6 -1 -11 5 -11 14 0 8 4 12 10 9 6 -4 7 1 3 11 -4 10 -2 15 3 11 6
-3 10 6 9 21 0 15 4 30 10 34 6 5 3 8 -6 8 -9 0 -19 6 -22 13 -5 13 22 139 33
147 3 3 5 15 4 28 -1 15 3 21 11 18 14 -5 15 11 2 31 -4 6 -2 23 4 37 10 20
15 23 26 15 10 -9 13 -8 10 7 -1 11 -6 25 -10 31 -6 9 -3 11 7 7 8 -3 17 -12
20 -20 3 -7 12 -11 21 -8 8 3 13 10 10 14 -3 5 4 6 15 3 11 -3 20 -10 20 -16
0 -5 9 0 20 13 17 20 19 40 4 40 -3 0 -2 -5 2 -12 4 -7 3 -8 -4 -4 -6 4 -9 13
-5 22 4 12 9 11 24 -7 19 -22 44 -17 35 7 -3 8 1 14 9 14 8 0 15 5 15 10 0 7
-6 7 -20 0 -13 -7 -17 -16 -13 -28 6 -15 5 -15 -11 -3 -16 13 -16 15 -1 24 13
7 14 12 4 23 -7 9 -8 14 -1 14 6 0 12 -6 15 -12 4 -11 7 -11 18 0 10 9 10 12
0 12 -7 0 -9 5 -6 10 4 6 16 8 28 5 21 -6 22 -6 3 9 -11 9 -14 16 -7 16 7 0
10 4 6 9 -3 5 0 13 6 17 8 5 9 3 4 -6 -6 -10 -4 -12 7 -7 9 3 21 0 28 -6 10
-10 12 -8 7 6 -5 12 -3 16 5 11 6 -4 27 -8 46 -8 22 -1 37 -7 40 -16 5 -13 3
-13 -14 0 -18 14 -18 14 -5 -3 14 -17 16 -18 27 -2 7 9 15 12 18 7 3 -6 15 -8
26 -5 12 3 20 0 20 -6 0 -7 5 -9 10 -6 14 9 12 -9 -2 -24 -11 -10 -10 -11 5
-6 9 4 17 11 17 16 0 5 5 9 11 9 5 0 7 -5 4 -10 -3 -6 -1 -10 4 -10 6 0 11 5
11 10 0 6 5 10 10 10 15 0 7 -24 -9 -31 -11 -4 -9 -7 7 -11 12 -4 20 -2 16 3
-3 5 0 9 5 9 6 0 10 3 9 8 -2 4 0 8 5 10 16 5 19 1 7 -13 -15 -18 1 -20 18 -3
7 7 12 8 12 3 0 -6 5 -3 11 5 9 13 10 13 6 -2 -7 -20 18 -45 28 -28 3 5 1 10
-6 10 -7 0 -10 2 -7 5 9 9 39 -7 35 -18 -2 -6 -15 -12 -30 -12 -15 -1 -24 2
-20 8 4 6 1 7 -7 2 -8 -5 -11 -4 -6 3 7 12 -32 8 -43 -4 -3 -4 1 -5 10 -1 17
6 39 -9 39 -26 0 -5 -8 -3 -17 4 -15 11 -14 10 1 -9 20 -23 27 -27 25 -14 -5
29 19 37 50 17 5 -3 13 0 16 6 4 5 13 8 21 5 7 -3 16 -1 20 5 4 6 11 6 20 -2
17 -14 19 2 2 21 -11 12 -10 12 5 1 18 -14 24 -2 7 15 -6 6 -3 10 9 10 16 0
17 -4 10 -24 -5 -13 -7 -27 -4 -32 2 -4 -9 -6 -25 -5 -29 3 -40 -8 -20 -20 6
-3 10 -2 10 4 0 5 12 8 26 5 20 -4 25 -1 21 10 -8 20 3 28 20 14 10 -8 20 -6
41 13 25 22 25 22 8 2 -11 -13 -14 -23 -9 -23 6 0 16 7 23 15 7 8 16 13 20 10
5 -3 10 -2 13 2 2 5 2 2 1 -4 -4 -16 1 -16 26 -3 21 11 38 -4 19 -16 -8 -4 -9
-3 -5 4 5 8 2 10 -9 6 -19 -8 -14 -14 12 -19 10 -1 17 -8 15 -15 -1 -6 2 -9 8
-5 8 5 8 11 1 19 -11 13 -5 26 11 26 5 0 6 -5 2 -12 -4 -7 -3 -8 4 -4 7 4 12
16 12 28 0 14 5 18 15 14 8 -3 15 -1 15 4 0 6 5 10 12 10 9 0 9 -3 0 -12 -18
-18 -15 -27 7 -25 12 1 17 5 12 12 -11 16 -8 38 8 43 9 3 11 -1 6 -17 -5 -15
-2 -21 9 -21 9 0 16 5 16 11 0 5 4 8 8 5 4 -2 9 4 9 15 1 10 -4 19 -10 19 -7
0 -6 4 3 10 9 5 19 5 26 -1 17 -14 26 31 11 50 -11 14 -10 14 6 2 13 -11 20
-11 32 -1 8 7 13 16 10 20 -3 5 -1 11 5 15 14 9 52 -14 44 -27 -4 -7 -2 -8 5
-4 9 6 9 11 1 21 -8 9 -8 15 0 20 5 3 10 1 10 -4 0 -6 5 -11 11 -11 8 0 9 4 0
13 -6 8 -8 17 -4 20 3 4 12 -1 20 -11 13 -16 13 -15 4 3 -5 11 -20 21 -33 22
-15 2 -18 -1 -10 -6 10 -6 10 -10 -1 -19 -11 -9 -13 -7 -12 11 2 24 40 33 63
14 9 -7 11 -6 6 8 -6 14 -4 16 6 10 8 -5 11 -4 6 3 -3 6 -18 9 -31 6 -14 -2
-25 0 -25 5 0 6 9 8 21 6 15 -3 19 0 16 10 -4 8 6 21 21 31 19 12 23 13 15 3
-10 -12 -9 -15 6 -15 18 0 21 21 7 44 -4 6 -13 12 -19 12 -8 0 -8 -3 1 -9 11
-7 10 -9 -3 -14 -9 -4 -13 -3 -10 3 3 6 0 10 -7 10 -7 0 -5 5 6 12 14 8 24 8
39 -1 10 -7 22 -10 25 -7 3 3 0 6 -6 6 -7 0 -12 5 -12 11 0 5 5 7 10 4 6 -3
10 -1 10 5 0 7 -8 9 -22 5 -19 -6 -21 -5 -10 6 6 7 12 18 12 24 -1 5 -10 -1
-20 -14 -11 -13 -20 -20 -20 -15 0 4 10 18 21 31 19 20 20 25 8 40 -9 11 -10
14 -1 9 7 -4 12 -2 12 4 0 6 5 8 11 4 8 -5 8 -9 -1 -14 -9 -5 -9 -9 -1 -14 6
-4 11 -2 11 4 0 6 4 9 8 6 5 -3 9 1 9 9 0 8 -4 12 -9 9 -4 -3 -8 -1 -8 5 0 19
19 21 29 4 6 -10 11 -14 11 -10 0 4 -10 21 -22 37 -20 27 -38 32 -38 9 0 -6 4
-8 8 -5 5 3 9 -1 9 -9 0 -15 -16 -21 -18 -7 -6 34 -5 51 5 49 6 -1 10 8 10 21
-1 12 2 22 7 22 4 0 6 9 4 20 -4 20 5 26 19 13 3 -4 14 -8 22 -9 9 -1 13 1 9
4 -4 4 -11 8 -16 8 -5 1 -12 2 -15 3 -4 0 0 9 7 19 13 15 12 16 -3 3 -17 -12
-17 -11 -11 20 3 19 9 36 12 39 8 6 9 25 12 155 4 211 -73 411 -215 563 -187
200 -485 288 -758 226 -5 -1 -9 -2 -10 -3 -2 -2 -13 -4 -26 -7 -68 -12 -197
-71 -234 -107 -49 -46 -55 -46 -147 2 -47 25 -142 75 -211 110 l-125 63 2 112
c1 80 -4 133 -18 191 -26 109 -41 158 -52 173 -5 6 -7 12 -4 12 17 0 -95 179
-153 244 -75 84 -183 167 -280 213 -88 42 -110 49 -222 73 -110 24 -186 29
-273 18z m720 -1618 c-8 -9 -22 -17 -30 -17 -17 0 -9 12 8 12 7 1 11 6 10 11
-1 6 5 11 13 11 12 0 12 -3 -1 -17z m-64 -57 c13 -16 12 -17 -3 -4 -17 13 -22
21 -14 21 2 0 10 -8 17 -17z m66 2 c0 -8 -6 -16 -14 -19 -11 -4 -11 -1 -3 14
13 24 17 25 17 5z m-22 -43 c-3 -3 -11 0 -18 7 -9 10 -8 11 6 5 10 -3 15 -9
12 -12z m-138 -9 c-4 -3 -1 -13 6 -22 11 -14 10 -14 -5 -2 -16 12 -16 31 -1
31 4 0 3 -3 0 -7z m38 -1 c-3 -3 0 -10 5 -17 7 -8 5 -12 -5 -12 -8 0 -13 3
-10 5 3 3 0 10 -5 17 -7 8 -5 12 5 12 8 0 13 -3 10 -5z m40 -19 c-1 -13 -6
-27 -10 -31 -5 -4 -5 1 -1 12 3 10 2 24 -4 31 -7 8 -6 12 4 12 9 0 13 -9 11
-24z m45 6 c0 -14 -17 -10 -23 5 -4 10 -1 13 9 9 7 -3 14 -9 14 -14z m-279
-66 c13 -16 12 -17 -3 -4 -10 7 -18 15 -18 17 0 8 8 3 21 -13z m-171 -17 c0
-2 -8 -10 -17 -17 -16 -13 -17 -12 -4 4 13 16 21 21 21 13z m107 -13 c0 -8 -4
-9 -12 -3 -6 5 -24 7 -41 4 -17 -2 -24 -1 -16 4 20 13 69 10 69 -5z m123 7 c0
-5 -4 -10 -10 -10 -5 0 -10 5 -10 10 0 6 5 10 10 10 6 0 10 -4 10 -10z m-385
-19 c-7 -12 24 -43 35 -36 4 3 10 -1 13 -8 6 -17 -45 -16 -66 2 -13 10 -14 16
-4 32 6 10 15 19 20 19 4 0 6 -4 2 -9z m323 -22 c-3 -8 -7 -3 -11 10 -4 17 -3
21 5 13 5 -5 8 -16 6 -23z m-140 -10 c-3 -8 -7 -3 -11 10 -4 17 -3 21 5 13 5
-5 8 -16 6 -23z m42 27 c0 -2 -8 -10 -17 -17 -16 -13 -17 -12 -4 4 13 16 21
21 21 13z m-183 -12 c-3 -3 -12 -4 -19 -1 -8 3 -5 6 6 6 11 1 17 -2 13 -5z
m68 -12 c-3 -3 -11 0 -18 7 -9 10 -8 11 6 5 10 -3 15 -9 12 -12z m251 -20 c-4
-3 -11 0 -16 8 -15 24 -11 33 6 15 9 -9 13 -19 10 -23z m-139 -2 c-1 -12 -5
-16 -10 -11 -5 5 -6 14 -3 20 11 16 15 13 13 -9z m2328 -428 c-17 -15 -18 -15
-6 0 7 9 9 23 5 30 -6 10 -4 11 7 0 11 -10 10 -15 -6 -30z m-28 -8 c-3 -4 -2
-16 4 -28 9 -19 9 -19 -4 -4 -8 10 -18 14 -23 10 -4 -4 -2 1 5 11 7 9 16 17
19 17 3 0 2 -3 -1 -6z m-16 -51 c13 -16 12 -17 -3 -4 -10 7 -18 15 -18 17 0 8
8 3 21 -13z m-24 -16 c0 -8 -6 -14 -14 -14 -9 0 -10 4 -2 14 6 7 12 13 14 13
1 0 2 -6 2 -13z m43 -16 c0 -6 -5 -13 -12 -17 -6 -4 -8 -3 -4 4 3 5 0 13 -6
15 -8 3 -6 6 5 6 9 1 17 -3 17 -8z m-86 -60 c-2 -3 -12 3 -22 13 -16 17 -16
18 5 5 12 -7 20 -15 17 -18z m30 4 c-9 -14 -18 -25 -20 -25 -2 0 2 11 8 25 6
14 15 25 20 25 5 0 1 -11 -8 -25z m-65 -8 c8 -10 7 -14 -2 -14 -8 0 -14 6 -14
14 0 7 1 13 2 13 2 0 8 -6 14 -13z m41 -47 c0 -5 -5 -10 -11 -10 -5 0 -7 5 -4
10 3 6 8 10 11 10 2 0 4 -4 4 -10z m-90 -14 c0 -2 -8 -10 -17 -17 -16 -13 -17
-12 -4 4 13 16 21 21 21 13z m50 -26 c0 -5 -4 -10 -10 -10 -5 0 -10 5 -10 10
0 6 5 10 10 10 6 0 10 -4 10 -10z m-992 -17 c-9 -10 -14 -26 -13 -36 2 -9 0
-15 -5 -12 -15 9 8 65 28 65 3 0 -2 -8 -10 -17z m871 4 c-2 -1 -13 -9 -24 -17
-19 -14 -19 -14 -6 3 7 9 18 17 24 17 6 0 8 -1 6 -3z m81 -27 c0 -5 -4 -10
-10 -10 -5 0 -10 5 -10 10 0 6 5 10 10 10 6 0 10 -4 10 -10z m-35 -18 c-3 -3
-11 0 -18 7 -9 10 -8 11 6 5 10 -3 15 -9 12 -12z m-188 -7 c0 -8 -4 -12 -9 -9
-5 3 -6 10 -3 15 9 13 12 11 12 -6z m93 11 c0 -2 -8 -10 -17 -17 -16 -13 -17
-12 -4 4 13 16 21 21 21 13z m45 -16 c3 -5 1 -10 -4 -10 -6 0 -11 5 -11 10 0
6 2 10 4 10 3 0 8 -4 11 -10z m-959 -15 c-1 -8 -5 -17 -8 -21 -5 -4 -4 16 1
34 3 9 9 -1 7 -13z m56 -9 c3 3 8 1 12 -4 11 -18 -25 -8 -41 12 -18 21 -18 21
3 3 11 -9 23 -14 26 -11z m68 20 c0 -2 -7 -7 -16 -10 -8 -3 -12 -2 -9 4 6 10
25 14 25 6z m678 -31 c-3 -3 -9 2 -12 12 -6 14 -5 15 5 6 7 -7 10 -15 7 -18z
m-34 3 c-3 -4 -14 -6 -24 -5 -31 5 -32 13 -1 12 16 0 27 -3 25 -7z m96 0 c0
-4 -4 -8 -9 -8 -6 0 -12 4 -15 8 -3 5 1 9 9 9 8 0 15 -4 15 -9z m60 4 c0 -4
-9 -8 -20 -9 -11 -1 -20 2 -20 5 0 4 9 8 20 9 11 1 20 -2 20 -5z m90 4 c0 -2
-7 -9 -15 -16 -13 -11 -14 -10 -9 4 5 14 24 23 24 12z m-1053 -21 c0 -8 -10
-23 -21 -32 -21 -18 -21 -18 -2 5 11 12 16 22 12 22 -4 0 -4 5 -1 10 9 14 12
13 12 -5z m678 6 c3 -5 0 -13 -6 -17 -8 -5 -9 -3 -4 6 6 10 4 12 -9 7 -10 -4
-15 -3 -11 3 8 13 22 13 30 1z m193 -26 c-3 -3 -9 2 -12 12 -6 14 -5 15 5 6 7
-7 10 -15 7 -18z m-757 -3 c-7 -2 -18 1 -23 6 -8 8 -4 9 13 5 13 -4 18 -8 10
-11z m549 -11 c3 -2 -2 -2 -10 1 -8 3 -21 -2 -28 -11 -11 -14 -12 -13 -3 5 6
12 7 25 3 30 -6 7 21 -11 38 -25z m111 6 c-8 -8 -14 -7 -23 2 -11 10 -9 11 6
5 15 -6 17 -4 11 6 -6 9 -4 11 4 5 9 -5 10 -10 2 -18z m153 15 c3 -5 -1 -9 -9
-9 -8 0 -15 4 -15 9 0 4 4 8 9 8 6 0 12 -4 15 -8z m-872 -26 c7 4 8 2 4 -5 -9
-13 -26 -5 -25 12 0 9 2 8 6 -1 2 -6 10 -9 15 -6z m13 -26 c-3 -5 1 -10 10
-10 9 0 13 -4 10 -10 -4 -6 -13 -5 -25 2 -14 9 -16 14 -7 20 16 10 19 10 12
-2z m-109 -26 c1 -9 0 -13 -4 -10 -3 4 -7 14 -8 22 -1 9 0 13 4 10 3 -4 7 -14
8 -22z m-56 -333 c5 -11 8 -26 5 -33 -6 -16 -45 -22 -45 -7 0 5 3 8 8 8 18 -3
32 2 32 12 0 6 -6 9 -14 6 -12 -5 -14 6 -7 31 3 7 12 0 21 -17z m-96 -139 c3
-5 -1 -9 -9 -9 -8 0 -12 4 -9 9 3 4 7 8 9 8 2 0 6 -4 9 -8z m64 -43 c-16 -10
-30 -1 -22 13 5 7 2 9 -8 6 -8 -4 -15 0 -15 8 0 10 6 10 28 -3 19 -12 25 -20
17 -24z m-71 -45 c-3 -3 -12 -4 -19 -1 -8 3 -5 6 6 6 11 1 17 -2 13 -5z m-35
-41 c-12 -21 -39 -26 -39 -7 0 10 4 11 12 4 9 -8 14 -6 19 5 3 8 8 15 11 15 3
0 2 -8 -3 -17z m-166 -82 c-1 -21 -8 -47 -16 -57 -14 -16 -13 -17 8 -12 12 4
22 2 22 -4 0 -5 5 -6 10 -3 6 4 8 10 5 15 -3 5 0 12 6 16 8 5 9 3 4 -6 -6 -10
-4 -12 10 -6 16 6 17 5 3 -16 -9 -13 -19 -23 -24 -23 -5 -1 -20 -7 -33 -14
-17 -9 -26 -10 -34 -2 -11 11 1 16 30 12 6 -1 14 3 18 9 3 5 -2 10 -13 10 -26
0 -34 11 -19 28 6 8 13 28 13 44 2 39 3 48 8 48 2 0 3 -18 2 -39z m100 24 c-1
-8 -6 -18 -11 -22 -4 -4 -5 -2 -1 5 5 7 1 12 -11 13 -16 0 -16 1 2 9 11 5 21
9 22 9 1 1 0 -6 -1 -14z m-222 -54 c3 -5 -1 -14 -8 -20 -10 -9 -16 -9 -21 -1
-4 6 -1 9 7 8 7 -2 12 3 11 10 -3 14 3 16 11 3z m43 -13 c1 -10 -3 -18 -9 -18
-6 0 -8 3 -5 7 4 3 2 11 -3 18 -7 8 -6 12 3 12 7 0 14 -9 14 -19z m-232 -28
c3 -6 -1 -7 -9 -4 -18 7 -21 14 -7 14 6 0 13 -4 16 -10z m40 0 c3 -6 -1 -7 -9
-4 -18 7 -21 14 -7 14 6 0 13 -4 16 -10z m83 -19 c-12 -19 -28 -19 -28 0 0 6
4 8 9 4 5 -3 12 -1 16 5 3 5 8 10 11 10 2 0 -1 -9 -8 -19z m53 4 c5 4 6 -1 2
-10 -5 -13 -7 -14 -14 -3 -5 7 -8 18 -8 23 0 6 3 4 6 -3 2 -6 9 -10 14 -7z
m90 -3 c-7 -2 -18 1 -23 6 -8 8 -4 9 13 5 13 -4 18 -8 10 -11z m-276 -2 c3 -5
3 -15 -1 -21 -6 -11 -23 6 -24 24 0 10 18 9 25 -3z m230 -8 c-3 -3 -11 0 -18
7 -9 10 -8 11 6 5 10 -3 15 -9 12 -12z"/>
<path d="M1226 1922 c-3 -6 -1 -14 5 -17 14 -9 20 -2 10 14 -6 8 -11 9 -15 3z"/>
<path d="M1986 2078 c3 -5 10 -6 15 -3 13 9 11 12 -6 12 -8 0 -12 -4 -9 -9z"/>
<path d="M1760 1992 c0 -5 15 -21 32 -38 18 -16 24 -19 14 -6 -14 16 -15 22
-6 22 9 0 7 5 -6 15 -22 16 -34 19 -34 7z"/>
<path d="M1014 1962 c4 -3 14 -7 22 -8 9 -1 13 0 10 4 -4 3 -14 7 -22 8 -9 1
-13 0 -10 -4z"/>
<path d="M1060 1963 c0 -19 21 -27 33 -13 9 10 9 11 -2 5 -8 -4 -17 -2 -22 6
-6 9 -9 10 -9 2z"/>
<path d="M1827 1959 c7 -7 15 -10 18 -7 3 3 -2 9 -12 12 -14 6 -15 5 -6 -5z"/>
<path d="M1166 1885 c-11 -8 -15 -15 -9 -15 6 0 16 7 23 15 16 19 11 19 -14 0z"/>
<path d="M1320 1880 c12 -22 25 -26 35 -9 5 7 16 2 31 -12 19 -18 27 -20 37
-10 9 10 8 11 -8 5 -17 -7 -18 -6 -7 8 10 13 10 18 1 24 -7 4 -15 2 -17 -5 -3
-9 -7 -9 -17 -1 -9 8 -15 8 -20 0 -9 -15 -25 -12 -25 5 0 8 -5 15 -10 15 -7 0
-7 -6 0 -20z"/>
<path d="M1660 1886 c0 -2 9 -6 20 -9 11 -3 18 -1 14 4 -5 9 -34 13 -34 5z"/>
<path d="M1470 1850 c-8 -5 -12 -12 -9 -15 4 -3 12 1 19 10 14 17 11 19 -10 5z"/>
<path d="M3862 1638 c0 -7 -3 -23 -5 -35 -3 -12 0 -23 7 -26 9 -4 12 3 10 25
-3 25 -1 28 10 19 11 -9 16 -9 22 1 4 7 3 10 -1 5 -5 -4 -16 0 -25 8 -12 11
-17 12 -18 3z"/>
<path d="M3886 1563 c-6 -14 -5 -15 5 -6 7 7 10 15 7 18 -3 3 -9 -2 -12 -12z"/>
<path d="M3830 1466 c0 -2 6 -9 14 -15 11 -9 16 -9 22 0 4 8 3 9 -4 5 -7 -4
-12 -2 -12 3 0 6 -4 11 -10 11 -5 0 -10 -2 -10 -4z"/>
<path d="M3779 1328 c11 -15 41 -15 41 -1 0 3 -6 3 -14 0 -7 -3 -20 0 -27 6
-11 10 -11 9 0 -5z"/>
<path d="M3677 1224 c7 -3 0 -17 -20 -35 -18 -17 -26 -28 -19 -24 7 4 21 1 30
-6 14 -11 15 -11 5 1 -15 16 -17 34 -4 25 6 -3 15 3 20 13 11 20 5 33 -13 31
-7 0 -6 -2 1 -5z"/>
<path d="M3695 1180 c-3 -6 1 -7 9 -4 18 7 21 14 7 14 -6 0 -13 -4 -16 -10z"/>
<path d="M2731 1151 c-9 -6 -10 -10 -2 -15 15 -10 3 -29 -14 -22 -10 3 -12 -2
-9 -17 3 -12 6 -27 6 -34 1 -7 5 -10 10 -7 4 3 3 14 -2 25 -13 24 -2 25 16 2
13 -17 14 -17 8 0 -5 13 -2 16 12 11 15 -5 16 -4 5 4 -19 14 -23 42 -5 35 8
-3 11 -10 7 -17 -3 -6 -2 -7 3 -3 5 5 10 13 10 18 3 22 5 23 14 9 7 -11 10
-11 10 -2 0 7 5 10 10 7 6 -4 7 -11 4 -17 -4 -7 -2 -8 5 -4 9 6 9 11 1 21 -11
13 -34 14 -46 2 -4 -4 -12 -3 -18 3 -7 5 -18 5 -25 1z"/>
<path d="M3638 1143 c7 -3 16 -2 19 1 4 3 -2 6 -13 5 -11 0 -14 -3 -6 -6z"/>
<path d="M3606 1121 c8 -8 43 -8 38 0 -2 4 -13 7 -24 6 -10 -1 -17 -3 -14 -6z"/>
<path d="M3339 1054 c-11 -13 -11 -18 -1 -21 6 -3 10 -8 8 -12 -3 -4 3 -7 13
-7 19 0 22 29 4 47 -7 7 -14 4 -24 -7z m31 -8 c0 -11 -19 -15 -25 -6 -3 5 1
10 9 10 9 0 16 -2 16 -4z"/>
<path d="M3266 1045 c4 -8 11 -15 16 -15 6 0 5 6 -2 15 -7 8 -14 15 -16 15 -2
0 -1 -7 2 -15z"/>
<path d="M3155 1033 c-14 -11 -15 -14 -4 -10 9 3 23 0 30 -6 11 -10 11 -9 1 4
-6 9 -9 19 -5 22 12 13 -2 6 -22 -10z"/>
<path d="M3300 1040 c0 -5 5 -10 11 -10 5 0 7 5 4 10 -3 6 -8 10 -11 10 -2 0
-4 -4 -4 -10z"/>
<path d="M3246 1005 c-11 -8 -15 -15 -9 -15 6 0 16 7 23 15 16 19 11 19 -14 0z"/>
<path d="M3286 1003 c-6 -14 -5 -15 5 -6 7 7 10 15 7 18 -3 3 -9 -2 -12 -12z"/>
<path d="M2523 985 c1 -13 -3 -19 -12 -17 -8 2 -18 -3 -22 -10 -13 -20 -10
-28 8 -21 12 5 14 3 8 -7 -5 -9 -4 -11 4 -6 6 4 9 11 6 16 -3 4 3 14 12 21 15
12 16 12 10 -6 l-7 -20 15 20 c9 11 20 20 25 20 6 0 10 5 9 10 -1 12 -23 7
-28 -6 -1 -6 -9 -2 -16 8 -13 17 -13 17 -12 -2z"/>
<path d="M2430 719 c0 -5 5 -7 10 -4 6 3 10 8 10 11 0 2 -4 4 -10 4 -5 0 -10
-5 -10 -11z"/>
<path d="M2362 468 c-7 -7 -12 -19 -12 -27 1 -13 3 -13 11 2 7 13 17 16 32 11
12 -3 20 -5 17 -2 -32 25 -37 27 -48 16z"/>
<path d="M2370 440 c0 -5 5 -10 11 -10 5 0 7 5 4 10 -3 6 -8 10 -11 10 -2 0
-4 -4 -4 -10z"/>
<path d="M2339 407 c-4 -13 -6 -37 -2 -37 2 0 11 6 18 14 12 12 12 15 0 20 -8
3 -15 4 -16 3z"/>
<path d="M2227 306 c-4 -10 -1 -13 8 -9 8 3 12 9 9 14 -7 12 -11 11 -17 -5z"/>
<path d="M2230 261 c0 -5 8 -15 18 -22 15 -12 16 -12 5 2 -7 9 -10 19 -6 22 3
4 1 7 -5 7 -7 0 -12 -4 -12 -9z"/>
<path d="M1660 256 c0 -2 7 -6 15 -10 8 -3 15 -1 15 4 0 6 -7 10 -15 10 -8 0
-15 -2 -15 -4z"/>
<path d="M1715 239 c18 -24 21 -25 32 -10 8 11 8 19 1 26 -7 7 -12 6 -15 -3
-4 -10 -8 -10 -21 0 -11 9 -10 5 3 -13z"/>
<path d="M1798 183 c7 -3 16 -2 19 1 4 3 -2 6 -13 5 -11 0 -14 -3 -6 -6z"/>
<path d="M2050 180 c0 -5 5 -10 11 -10 5 0 7 5 4 10 -3 6 -8 10 -11 10 -2 0
-4 -4 -4 -10z"/>
<path d="M2000 170 c-9 -6 -10 -10 -3 -10 6 0 15 5 18 10 8 12 4 12 -15 0z"/>
</g>
</svg>
